<svg width="107" height="29" viewBox="0 0 107 29" fill="none" xmlns="http://www.w3.org/2000/svg">
<path d="M50.133 5.99883H45.6477L45.6554 14.3908C45.6554 16.8436 44.6033 18.8274 42.1536 18.8274C39.7039 18.8274 38.6397 16.8481 38.6397 14.3908V6.00645H34.162V14.3908C34.162 19.2369 37.2786 23.165 42.1247 23.165C46.9708 23.165 50.133 19.2369 50.133 14.3908V5.99883ZM90.5766 0.884766H95.0406V22.7311H90.5766V0.884766ZM98.3353 1.69017V0.90608H101.814V1.69017H100.541V5.14928H99.6081V1.69017H98.3353ZM103.614 0.90608L104.608 3.82471H104.619L105.558 0.90608H106.872V5.14928H105.998V2.14235H105.986L104.946 5.14928H104.232L103.192 2.17128H103.18V5.14928H102.306V0.90608H103.614ZM30.5141 5.81614C26.6668 4.92852 24.2399 8.74999 24.1394 8.95553C24.0892 9.05601 24.0877 9.10778 23.9171 9.10778C23.7771 9.10778 23.7649 8.95553 23.7649 8.95553L23.2883 6.03233H19.2842V22.7174H23.7664V13.6859C23.7664 12.9475 25.7548 9.40923 29.6052 10.3197C31.5525 10.7764 32.3777 11.6062 32.3777 11.6062V6.5241C31.7928 6.20177 31.1655 5.96344 30.5141 5.81614ZM56.2154 28.2136V19.9617C56.2154 19.9617 56.223 19.782 56.3844 19.7805C56.5458 19.779 56.561 19.8749 56.596 19.9617C56.9371 20.8082 58.8052 24.0298 62.9524 23.0188C64.5333 22.5719 65.958 21.6928 67.0666 20.4805C68.1752 19.2682 68.9237 17.7706 69.2278 16.1563C69.5319 14.5419 69.3797 12.8747 68.7882 11.3421C68.1967 9.80946 67.1894 8.47223 65.8796 7.48073C64.5698 6.48922 63.0094 5.88274 61.3738 5.72948C59.7382 5.57622 58.0922 5.88225 56.621 6.61317C55.1498 7.34409 53.9116 8.47091 53.0457 9.86696C52.1798 11.263 51.7205 12.8729 51.7195 14.5157V28.2182L56.2154 28.2136ZM60.5591 10.0441C61.4439 10.0438 62.3089 10.3059 63.0448 10.7973C63.7806 11.2887 64.3542 11.9873 64.6929 12.8047C65.0317 13.6221 65.1204 14.5217 64.9478 15.3895C64.7753 16.2573 64.3492 17.0545 63.7236 17.6802C63.0979 18.3058 62.3007 18.7319 61.4329 18.9044C60.565 19.077 59.6655 18.9883 58.8481 18.6495C58.0307 18.3108 57.3321 17.7372 56.8407 17.0014C56.3493 16.2655 56.0872 15.4005 56.0875 14.5157C56.0875 13.3297 56.5586 12.1924 57.3972 11.3538C58.2358 10.5152 59.3731 10.0441 60.5591 10.0441Z" fill="#2AA9E0"/>
<path d="M84.2715 22.7248H88.7644V14.5155C88.7633 12.8728 88.304 11.2629 87.4381 9.86681C86.5722 8.47077 85.3341 7.34395 83.8629 6.61303C82.3917 5.88211 80.7457 5.57608 79.1101 5.72934C77.4745 5.8826 75.9141 6.48908 74.6042 7.48058C73.2944 8.47209 72.2872 9.80932 71.6957 11.3419C71.1042 12.8745 70.952 14.5417 71.2561 16.1561C71.5602 17.7705 72.3087 19.268 73.4173 20.4804C74.5258 21.6927 75.9506 22.5717 77.5314 23.0187C81.6787 24.0296 83.5468 20.808 83.8879 19.9615C83.9229 19.8747 83.9549 19.7788 84.0995 19.7803C84.2441 19.7819 84.2685 19.9615 84.2685 19.9615M84.3979 14.5155C84.3979 15.3999 84.1357 16.2645 83.6443 16.9998C83.153 17.7352 82.4546 18.3083 81.6375 18.6467C80.8204 18.9852 79.9214 19.0737 79.054 18.9012C78.1866 18.7287 77.3898 18.3028 76.7645 17.6774C76.1391 17.0521 75.7132 16.2553 75.5407 15.3879C75.3681 14.5205 75.4567 13.6214 75.7951 12.8043C76.1336 11.9873 76.7067 11.2889 77.4421 10.7976C78.1774 10.3062 79.0419 10.044 79.9263 10.044C81.1121 10.0444 82.2493 10.5156 83.0878 11.3541C83.9263 12.1926 84.3975 13.3297 84.3979 14.5155ZM5.24478 22.6898H0.147461V0.875488H5.61627C12.2407 0.875488 17.2649 2.09349 17.2649 11.7827C17.2649 21.382 11.9438 22.6898 5.24478 22.6898ZM6.46278 4.65737H4.66014V18.9049L6.50998 18.9521C10.3056 18.9521 12.7522 18.608 12.7522 11.7827C12.7507 5.23897 10.5979 4.65737 6.46126 4.65737H6.46278Z" fill="#2AA9E0"/>
</svg>
