<svg width="156" height="44" viewBox="0 0 156 44" fill="none" xmlns="http://www.w3.org/2000/svg">
<g clip-path="url(#clip0_1499_22)">
<path fill-rule="evenodd" clip-rule="evenodd" d="M59.6642 11.4624V30.4521H67.0185V33.7283H55.748V11.4624H59.6642ZM80.8414 20.9094V18.9055H84.553V33.7291H80.8423V31.7243C80.3422 32.4667 79.634 33.0501 78.714 33.4736C77.7949 33.898 76.8697 34.1098 75.9392 34.1098C74.7352 34.1098 73.6345 33.9038 72.636 33.4901C71.6629 33.0937 70.7877 32.5142 70.0649 31.7878C69.3489 31.0652 68.7835 30.224 68.3979 29.3075C67.9961 28.3553 67.7934 27.34 67.8008 26.3165C67.8008 25.2782 67.9993 24.2862 68.3971 23.3419C68.7802 22.4191 69.346 21.5721 70.0649 20.8452C70.7879 20.1191 71.6631 19.5399 72.636 19.1436C73.6345 18.73 74.7352 18.524 75.9392 18.524C76.8697 18.524 77.7949 18.7358 78.714 19.1601C79.6331 19.5845 80.3413 20.167 80.8414 20.9094ZM80.501 28.1301C80.7296 27.5497 80.8452 26.9357 80.8423 26.3173C80.8423 25.6803 80.7277 25.0764 80.501 24.5045C80.2882 23.9539 79.9649 23.4463 79.5484 23.009C79.1326 22.58 78.6287 22.2337 78.0666 21.9905C77.488 21.7367 76.8468 21.609 76.1438 21.609C75.4391 21.609 74.8031 21.7367 74.236 21.9905C73.6809 22.2366 73.1834 22.5827 72.7719 23.009C72.3567 23.444 72.0388 23.9522 71.8369 24.5037C71.6187 25.0862 71.509 25.6993 71.5123 26.3165C71.5123 26.9526 71.6199 27.5574 71.836 28.1292C72.0513 28.7027 72.3635 29.2004 72.7727 29.6248C73.1841 30.0512 73.6817 30.3973 74.2369 30.6432C74.8031 30.8978 75.4391 31.0247 76.1429 31.0247C76.8468 31.0247 77.488 30.8978 78.0666 30.6432C78.6288 30.4003 79.1328 30.0539 79.5484 29.6248C79.9649 29.1878 80.2882 28.6804 80.501 28.1301ZM87.4813 33.7283V18.9055H97.5601V22.3176H91.1919V33.7299H87.4813V33.7283ZM111.009 20.9094V18.9055H114.721V33.7291H111.009V31.7243C110.51 32.4667 109.801 33.0501 108.881 33.4736C107.962 33.898 107.037 34.1098 106.106 34.1098C104.903 34.1098 103.802 33.9038 102.804 33.4901C101.831 33.0937 100.955 32.5142 100.233 31.7878C99.5162 31.0652 98.9505 30.2241 98.5647 29.3075C98.1631 28.3553 97.9607 27.3399 97.9684 26.3165C97.9684 25.2782 98.1669 24.2862 98.5647 23.3419C98.9476 22.4192 99.5131 21.5722 100.232 20.8452C100.955 20.119 101.83 19.5398 102.804 19.1436C103.802 18.73 104.903 18.524 106.106 18.524C107.036 18.524 107.962 18.7358 108.881 19.1601C109.801 19.5845 110.51 20.167 111.009 20.9094ZM110.669 28.1301C110.897 27.5496 111.012 26.9357 111.009 26.3173C111.009 25.6803 110.894 25.0764 110.669 24.5045C110.456 23.9539 110.133 23.4463 109.716 23.009C109.3 22.58 108.796 22.2337 108.234 21.9905C107.656 21.7367 107.014 21.609 106.311 21.609C105.607 21.609 104.971 21.7367 104.404 21.9905C103.849 22.2366 103.351 22.5827 102.939 23.009C102.524 23.444 102.206 23.9522 102.004 24.5037C101.786 25.0863 101.676 25.6994 101.68 26.3165C101.68 26.9526 101.787 27.5574 102.004 28.1292C102.219 28.7027 102.531 29.2004 102.939 29.6248C103.351 30.0512 103.848 30.3973 104.404 30.6432C104.971 30.8978 105.607 31.0247 106.311 31.0247C107.014 31.0247 107.656 30.8978 108.234 30.6432C108.796 30.4003 109.3 30.0539 109.716 29.6248C110.133 29.1878 110.456 28.6804 110.669 28.1301ZM129.599 18.9055H133.358L127.268 33.7291H122.602L116.511 18.9055H120.27L124.935 30.2568L129.599 18.9055ZM141.454 18.524C146.507 18.524 149.953 22.7082 149.305 27.6052H136.993C136.993 28.884 138.375 31.356 141.657 31.356C144.48 31.356 146.372 29.0365 146.373 29.0348L148.88 30.8476C146.638 33.0831 144.803 34.1106 141.928 34.1106C136.792 34.1106 133.311 31.075 133.311 26.3173C133.311 22.0136 136.909 18.524 141.454 18.524ZM137.003 25.0286H145.897C145.87 24.7435 145.387 21.2778 141.424 21.2778C137.459 21.2778 137.031 24.7435 137.003 25.0286ZM151.722 33.7283V11.4624H155.434V33.7283H151.722Z" fill="#FF2D20"/>
</g>
<g clip-path="url(#clip1_1499_22)">
<path fill-rule="evenodd" clip-rule="evenodd" d="M44.5395 10.3478C44.5558 10.404 44.5641 10.4619 44.5642 10.5201V19.5609C44.5642 19.6769 44.5315 19.7909 44.4692 19.8913C44.4069 19.9917 44.3174 20.075 44.2097 20.1327L36.0872 24.5015V33.1608C36.0872 33.3965 35.9531 33.614 35.7344 33.7327L18.7793 42.8509C18.7405 42.8715 18.6982 42.8847 18.6559 42.8987C18.64 42.9037 18.625 42.9127 18.6082 42.9169C18.4897 42.946 18.3651 42.946 18.2466 42.9169C18.2272 42.9119 18.2096 42.902 18.191 42.8954C18.1522 42.8823 18.1117 42.8707 18.0746 42.8509L1.12313 33.7327C1.01544 33.6749 0.92596 33.5916 0.863711 33.4912C0.801461 33.3908 0.76864 33.2768 0.768555 33.1608L0.768555 6.03838C0.768555 5.97905 0.777375 5.92137 0.793251 5.86534C0.798543 5.84639 0.810892 5.82909 0.817948 5.81014C0.831178 5.77553 0.843526 5.7401 0.862931 5.70796C0.876161 5.68654 0.895565 5.66923 0.911441 5.64946C0.931728 5.62309 0.95025 5.5959 0.974065 5.57283C0.994351 5.55387 1.02081 5.53987 1.04374 5.52339C1.06932 5.50361 1.09225 5.48219 1.12136 5.46653L9.59843 0.907397C9.70575 0.849701 9.82741 0.819336 9.95124 0.819336C10.0751 0.819336 10.1967 0.849701 10.304 0.907397L18.7802 5.46653H18.782C18.8102 5.48301 18.834 5.50361 18.8596 5.52256C18.8825 5.53904 18.9081 5.55387 18.9284 5.572C18.9531 5.5959 18.9707 5.62309 18.9919 5.64946C19.0069 5.66923 19.0272 5.68654 19.0395 5.70796C19.0598 5.74092 19.0713 5.77553 19.0854 5.81014C19.0925 5.82909 19.1048 5.84639 19.1101 5.86617C19.1263 5.92232 19.1346 5.98022 19.1348 6.03838V22.9788L26.198 19.1794V10.5192C26.198 10.4616 26.2068 10.4031 26.2227 10.3478C26.2289 10.3281 26.2403 10.3108 26.2474 10.2918C26.2615 10.2572 26.2738 10.2218 26.2932 10.1896C26.3065 10.1682 26.3259 10.1509 26.3409 10.1311C26.362 10.1048 26.3797 10.0776 26.4044 10.0545C26.4247 10.0356 26.4502 10.0215 26.4732 10.0051C26.4996 9.98529 26.5226 9.96387 26.5508 9.94821L35.0287 5.38908C35.136 5.3313 35.2577 5.30089 35.3816 5.30089C35.5054 5.30089 35.6271 5.3313 35.7344 5.38908L44.2105 9.94821C44.2405 9.96469 44.2635 9.98529 44.2899 10.0042C44.312 10.0207 44.3376 10.0356 44.3578 10.0537C44.3825 10.0776 44.4002 10.1048 44.4213 10.1311C44.4372 10.1509 44.4566 10.1682 44.469 10.1896C44.4893 10.2218 44.5007 10.2572 44.5148 10.2918C44.5228 10.3108 44.5342 10.3281 44.5395 10.3478ZM43.1512 19.1794V11.6613L40.185 13.2565L36.0872 15.4607V22.9788L43.1521 19.1794H43.1512ZM34.6751 32.7793V25.2563L30.6442 27.4069L19.1339 33.544V41.1379L34.6751 32.7793ZM2.18155 7.17961V32.7793L17.7209 41.137V33.5448L9.60284 29.2526L9.60019 29.251L9.59666 29.2493C9.56932 29.2345 9.54639 29.2131 9.52081 29.195C9.49876 29.1785 9.47318 29.1653 9.45378 29.1472L9.45201 29.1447C9.42908 29.1241 9.41321 29.0986 9.3938 29.0755C9.37616 29.0532 9.35499 29.0343 9.34088 29.0112L9.34 29.0087C9.32412 28.984 9.31442 28.9544 9.30295 28.9263C9.29149 28.9016 9.27649 28.8786 9.26944 28.8522C9.26062 28.8209 9.25885 28.7871 9.25532 28.755C9.25179 28.7302 9.24474 28.7055 9.24474 28.6808V28.6791V10.979L5.14777 8.77403L2.18155 7.17961ZM9.95212 2.24061L2.88981 6.03838L9.95035 9.83615L17.0118 6.03756L9.95035 2.24061H9.95212ZM13.6248 25.9419L17.7218 23.7385V7.17961L14.7556 8.77485L10.6577 10.979V27.5379L13.6248 25.9419ZM35.3816 6.72229L28.3201 10.5201L35.3816 14.3178L42.4421 10.5192L35.3816 6.72229ZM34.6751 15.4607L30.5772 13.2565L27.611 11.6613V19.1794L31.708 21.3827L34.6751 22.9788V15.4607ZM18.4265 32.4028L28.7841 26.8787L33.9615 24.1184L26.9054 20.3231L18.7811 24.6927L11.3766 28.675L18.4265 32.4028Z" fill="#FF2D20"/>
</g>
<defs>
<clipPath id="clip0_1499_22">
<rect width="100.55" height="23.8957" fill="white" transform="translate(55.4541 10.707)"/>
</clipPath>
<clipPath id="clip1_1499_22">
<rect width="44.1009" height="42.8475" fill="white" transform="translate(0.768555 0.819336)"/>
</clipPath>
</defs>
</svg>
