<svg width="200" height="54" viewBox="0 0 200 54" fill="none" xmlns="http://www.w3.org/2000/svg">
<g clip-path="url(#clip0_1499_23)">
<path d="M35.276 7.80908L8.0607 37.7212L1.16992 15.7453L35.276 7.80908Z" fill="#6FB7F1"/>
<path d="M35.2758 7.80908L35.2261 26.5236L25.8838 30.3752L8.06055 37.7212L35.2758 7.80908Z" fill="#459AE1"/>
<path d="M42.3824 -0.0185547L35.2266 26.5234L35.2763 7.80892L42.3824 -0.0185547Z" fill="#3F87D2"/>
<path d="M33.0567 34.5996L33.007 34.8015L28.0708 53.0656L21.7764 44.3218L33.0567 34.5996Z" fill="#6FB7F1"/>
<path d="M25.8838 30.375L21.7758 44.3216L8.06055 37.721L25.8838 30.375Z" fill="#3F87D2"/>
<path d="M33.0567 34.5993L21.7764 44.3216L25.8843 30.375L33.0567 34.5993Z" fill="#459AE1"/>
</g>
<path d="M55.1849 32.7773C55.1849 32.5096 55.1466 32.2694 55.07 32.0567C54.9999 31.837 54.8659 31.638 54.6681 31.4596C54.4703 31.2743 54.1928 31.0924 53.8355 30.914C53.4782 30.7355 53.0156 30.5502 52.4477 30.3581C51.8161 30.1385 51.2163 29.8914 50.6485 29.6169C50.087 29.3424 49.5894 29.0232 49.1555 28.6595C48.728 28.2889 48.3899 27.86 48.141 27.3727C47.8986 26.8854 47.7774 26.3192 47.7774 25.6741C47.7774 25.0496 47.905 24.4834 48.1602 23.9755C48.4154 23.4608 48.7727 23.0216 49.2321 22.6578C49.6914 22.2872 50.2338 22.0024 50.859 21.8034C51.4907 21.6044 52.183 21.5049 52.9358 21.5049C53.9631 21.5049 54.8595 21.7039 55.6251 22.1019C56.3908 22.5 56.9841 23.0456 57.4052 23.7388C57.8327 24.4319 58.0465 25.2246 58.0465 26.1168H55.1945C55.1945 25.6775 55.1083 25.2932 54.9361 24.9638C54.7702 24.6275 54.515 24.3633 54.1704 24.1711C53.8323 23.979 53.4048 23.8829 52.888 23.8829C52.3903 23.8829 51.9756 23.9652 51.6438 24.13C51.312 24.2878 51.0632 24.504 50.8973 24.7785C50.7314 25.0462 50.6485 25.3481 50.6485 25.6844C50.6485 25.9383 50.7059 26.1682 50.8208 26.3741C50.942 26.58 51.1206 26.7722 51.3567 26.9506C51.5928 27.1291 51.8831 27.2972 52.2276 27.455C52.5722 27.6129 52.9709 27.7673 53.4239 27.9183C54.1832 28.1654 54.8499 28.4433 55.4242 28.7521C56.0048 29.061 56.4897 29.4076 56.8789 29.7919C57.2681 30.1762 57.5616 30.612 57.7593 31.0993C57.9571 31.5865 58.056 32.139 58.056 32.7567C58.056 33.4087 57.938 33.992 57.7019 34.5067C57.4659 35.0215 57.1245 35.4572 56.6779 35.8141C56.2313 36.171 55.6985 36.4421 55.0796 36.6274C54.4607 36.8127 53.7685 36.9053 53.0028 36.9053C52.3138 36.9053 51.6342 36.8093 50.9643 36.6171C50.2944 36.4181 49.6851 36.1195 49.1364 35.7215C48.594 35.3234 48.1602 34.8156 47.8348 34.1979C47.5094 33.5802 47.3467 32.8493 47.3467 32.0052H50.2274C50.2274 32.4719 50.2944 32.8665 50.4284 33.189C50.5624 33.5116 50.7506 33.7724 50.993 33.9714C51.2419 34.1704 51.5354 34.3146 51.8735 34.4038C52.218 34.493 52.5945 34.5376 53.0028 34.5376C53.5005 34.5376 53.9088 34.4621 54.2278 34.3111C54.5532 34.1602 54.7925 33.9508 54.9456 33.6832C55.1051 33.4155 55.1849 33.1136 55.1849 32.7773Z" fill="#3C4964"/>
<path d="M62.5924 27.7021V40.9819H59.8361V25.5609H62.3915L62.5924 27.7021ZM69.1482 31.0066V31.2228C69.1482 32.0326 69.0589 32.7841 68.8802 33.4773C68.708 34.1704 68.4528 34.7744 68.1146 35.2891C67.7764 35.797 67.3553 36.195 66.8513 36.4833C66.3536 36.7646 65.7794 36.9053 65.1286 36.9053C64.497 36.9053 63.9483 36.7681 63.4825 36.4936C63.0167 36.219 62.6243 35.8347 62.3053 35.3406C61.9927 34.8396 61.7407 34.2597 61.5493 33.6008C61.3578 32.942 61.2111 32.2351 61.109 31.4802V30.914C61.2111 30.1041 61.3578 29.363 61.5493 28.6904C61.7407 28.0109 61.9927 27.4242 62.3053 26.93C62.6243 26.429 63.0135 26.0413 63.4729 25.7668C63.9387 25.4922 64.4842 25.355 65.1095 25.355C65.7666 25.355 66.3441 25.4888 66.8417 25.7565C67.3458 26.0241 67.7669 26.4085 68.105 26.9094C68.4496 27.4104 68.708 28.0075 68.8802 28.7007C69.0589 29.3938 69.1482 30.1625 69.1482 31.0066ZM66.3823 31.2228V31.0066C66.3823 30.5331 66.3441 30.0973 66.2675 29.6992C66.1973 29.2943 66.0825 28.9409 65.923 28.6389C65.7698 28.3369 65.5657 28.1036 65.3104 27.9389C65.0616 27.7673 64.7586 27.6815 64.4013 27.6815C64.0248 27.6815 63.7026 27.7467 63.4346 27.8771C63.173 28.0075 62.9593 28.1962 62.7934 28.4433C62.6275 28.6904 62.5031 28.9855 62.4202 29.3286C62.3372 29.6718 62.2862 30.0595 62.267 30.4919V31.9228C62.2989 32.4307 62.3883 32.8871 62.535 33.292C62.6818 33.69 62.9083 34.0057 63.2145 34.2391C63.5208 34.4724 63.9227 34.5891 64.4204 34.5891C64.7841 34.5891 65.0903 34.5033 65.3392 34.3317C65.588 34.1533 65.789 33.9097 65.9421 33.6008C66.1016 33.292 66.2133 32.9351 66.2771 32.5302C66.3472 32.1253 66.3823 31.6895 66.3823 31.2228Z" fill="#3C4964"/>
<path d="M73.7707 25.5609V36.6994H71.0049V25.5609H73.7707ZM70.8326 22.6578C70.8326 22.2255 70.973 21.8686 71.2537 21.5872C71.5344 21.3058 71.9109 21.1652 72.383 21.1652C72.8488 21.1652 73.222 21.3058 73.5028 21.5872C73.7899 21.8686 73.9334 22.2255 73.9334 22.6578C73.9334 23.0902 73.7899 23.4471 73.5028 23.7285C73.222 24.0098 72.8488 24.1505 72.383 24.1505C71.9109 24.1505 71.5344 24.0098 71.2537 23.7285C70.973 23.4471 70.8326 23.0902 70.8326 22.6578Z" fill="#3C4964"/>
<path d="M78.8048 27.9904V36.6994H76.0485V25.5609H78.6421L78.8048 27.9904ZM81.9248 25.4888L81.8769 28.2374C81.7429 28.2168 81.5802 28.1997 81.3888 28.186C81.2038 28.1654 81.0347 28.1551 80.8816 28.1551C80.4924 28.1551 80.1542 28.21 79.8671 28.3198C79.5864 28.4227 79.3503 28.5771 79.1589 28.783C78.9739 28.9889 78.8335 29.2394 78.7378 29.5345C78.6485 29.8296 78.5974 30.1659 78.5847 30.5434L78.0296 30.3581C78.0296 29.6375 78.0966 28.9752 78.2306 28.3713C78.3646 27.7605 78.5592 27.2286 78.8144 26.7756C79.076 26.3227 79.395 25.9727 79.7714 25.7256C80.1479 25.4785 80.5785 25.355 81.0634 25.355C81.2166 25.355 81.3729 25.3687 81.5324 25.3962C81.6919 25.4168 81.8227 25.4476 81.9248 25.4888Z" fill="#3C4964"/>
<path d="M88.4901 34.1876V29.2257C88.4901 28.8688 88.4359 28.5634 88.3274 28.3095C88.219 28.0487 88.0499 27.8462 87.8202 27.7021C87.5969 27.558 87.3066 27.4859 86.9493 27.4859C86.643 27.4859 86.3782 27.5443 86.1549 27.6609C85.9316 27.7707 85.7593 27.932 85.6381 28.1448C85.5169 28.3507 85.4563 28.5943 85.4563 28.8757H82.7C82.7 28.4021 82.8021 27.9526 83.0062 27.5271C83.2104 27.1016 83.5071 26.7276 83.8963 26.405C84.2855 26.0756 84.7481 25.8182 85.284 25.6329C85.8263 25.4476 86.4325 25.355 87.1024 25.355C87.9063 25.355 88.6209 25.4991 89.2462 25.7874C89.8715 26.0756 90.3627 26.508 90.72 27.0845C91.0837 27.6609 91.2656 28.3815 91.2656 29.2463V34.0126C91.2656 34.6234 91.3006 35.1244 91.3708 35.5156C91.441 35.8999 91.5431 36.2362 91.6771 36.5244V36.6994H88.8921C88.7581 36.3975 88.656 36.02 88.5858 35.5671C88.522 35.1072 88.4901 34.6474 88.4901 34.1876ZM88.8538 29.9154L88.8729 31.5934H87.3321C86.9684 31.5934 86.6526 31.638 86.3846 31.7272C86.1166 31.8165 85.8965 31.9434 85.7243 32.1081C85.552 32.266 85.4244 32.4513 85.3414 32.664C85.2649 32.8768 85.2266 33.1101 85.2266 33.3641C85.2266 33.618 85.2808 33.8479 85.3893 34.0538C85.4978 34.2528 85.6541 34.4107 85.8582 34.5273C86.0624 34.6371 86.3017 34.692 86.576 34.692C86.9907 34.692 87.3512 34.6028 87.6575 34.4244C87.9637 34.2459 88.1998 34.0263 88.3657 33.7655C88.538 33.5047 88.6273 33.2577 88.6337 33.0243L89.361 34.2803C89.2589 34.5616 89.1186 34.8533 88.9399 35.1553C88.7677 35.4573 88.5475 35.7421 88.2796 36.0097C88.0116 36.2705 87.6894 36.4867 87.313 36.6583C86.9365 36.823 86.4899 36.9053 85.9731 36.9053C85.3159 36.9053 84.7194 36.7646 84.1834 36.4833C83.6538 36.195 83.2327 35.8004 82.9201 35.2994C82.6139 34.7915 82.4607 34.2151 82.4607 33.5699C82.4607 32.9866 82.5628 32.4684 82.767 32.0155C82.9712 31.5625 83.271 31.1816 83.6666 30.8728C84.0686 30.5571 84.5694 30.3203 85.1692 30.1625C85.7689 29.9978 86.4644 29.9154 87.2555 29.9154H88.8538Z" fill="#3C4964"/>
<path d="M96.2996 20.8872V36.6994H93.5338V20.8872H96.2996Z" fill="#3C4964"/>
<path d="M105.334 21.7108V36.6994H104.157V21.7108H105.334ZM111.823 28.608V29.6992H104.942V28.608H111.823ZM112.79 21.7108V22.802H104.942V21.7108H112.79Z" fill="#3C4964"/>
<path d="M115.804 27.4036V36.6994H114.665V25.5609H115.776L115.804 27.4036ZM119.47 25.4785L119.441 26.6109C119.313 26.5903 119.189 26.5732 119.068 26.5594C118.947 26.5457 118.816 26.5388 118.675 26.5388C118.178 26.5388 117.741 26.6384 117.364 26.8374C116.994 27.0295 116.682 27.3006 116.426 27.6506C116.171 27.9938 115.977 28.3987 115.843 28.8654C115.709 29.3252 115.632 29.8193 115.613 30.3478L115.192 30.5228C115.192 29.7953 115.262 29.1193 115.402 28.4948C115.543 27.8703 115.756 27.3247 116.044 26.858C116.337 26.3844 116.704 26.0173 117.144 25.7565C117.591 25.4888 118.114 25.355 118.714 25.355C118.86 25.355 119.004 25.3687 119.144 25.3962C119.291 25.4168 119.4 25.4442 119.47 25.4785Z" fill="#3C4964"/>
<path d="M127.184 34.7023V28.958C127.184 28.4296 127.081 27.9732 126.877 27.5889C126.673 27.2046 126.373 26.9094 125.978 26.7036C125.582 26.4977 125.094 26.3947 124.513 26.3947C123.977 26.3947 123.499 26.4977 123.078 26.7036C122.663 26.9026 122.334 27.1737 122.092 27.5168C121.856 27.8531 121.738 28.2271 121.738 28.6389L120.589 28.6286C120.589 28.21 120.685 27.8051 120.877 27.4139C121.068 27.0227 121.339 26.6727 121.69 26.3638C122.041 26.055 122.459 25.8114 122.944 25.6329C123.435 25.4476 123.974 25.355 124.561 25.355C125.301 25.355 125.952 25.4888 126.514 25.7565C127.081 26.0241 127.525 26.4256 127.844 26.9609C128.163 27.4962 128.322 28.1688 128.322 28.9786V34.3626C128.322 34.7469 128.348 35.145 128.399 35.5568C128.456 35.9685 128.536 36.3083 128.638 36.5759V36.6994H127.423C127.346 36.4524 127.286 36.1435 127.241 35.7729C127.203 35.3955 127.184 35.0386 127.184 34.7023ZM127.451 30.214L127.471 31.161H125.222C124.635 31.161 124.108 31.2194 123.642 31.336C123.183 31.4459 122.794 31.6106 122.475 31.8302C122.156 32.0429 121.91 32.3003 121.738 32.6023C121.572 32.9042 121.489 33.2474 121.489 33.6317C121.489 34.0298 121.582 34.3935 121.767 34.7229C121.958 35.0523 122.226 35.3166 122.571 35.5156C122.921 35.7077 123.336 35.8038 123.815 35.8038C124.453 35.8038 125.014 35.6769 125.499 35.4229C125.99 35.169 126.396 34.8362 126.715 34.4244C127.034 34.0126 127.247 33.5631 127.356 33.0758L127.853 33.7861C127.771 34.1293 127.617 34.4827 127.394 34.8464C127.177 35.2033 126.893 35.5396 126.542 35.8553C126.191 36.1641 125.777 36.4181 125.298 36.6171C124.826 36.8093 124.29 36.9053 123.69 36.9053C123.014 36.9053 122.424 36.7681 121.92 36.4936C121.422 36.219 121.033 35.845 120.752 35.3715C120.478 34.8911 120.341 34.3489 120.341 33.7449C120.341 33.1959 120.449 32.7052 120.666 32.2728C120.883 31.8336 121.196 31.463 121.604 31.161C122.019 30.8522 122.516 30.6189 123.097 30.461C123.684 30.2963 124.341 30.214 125.068 30.214H127.451Z" fill="#3C4964"/>
<path d="M132.476 27.8668V36.6994H131.328V25.5609H132.428L132.476 27.8668ZM132.265 30.4404L131.71 30.1316C131.749 29.4728 131.863 28.8551 132.055 28.2786C132.253 27.7021 132.527 27.1943 132.878 26.755C133.229 26.3158 133.65 25.9727 134.141 25.7256C134.633 25.4785 135.191 25.355 135.816 25.355C136.32 25.355 136.776 25.4305 137.185 25.5815C137.599 25.7256 137.95 25.9555 138.237 26.2712C138.531 26.58 138.757 26.9849 138.917 27.4859C139.076 27.9869 139.156 28.5874 139.156 29.2875V36.6994H138.017V29.3286C138.017 28.5874 137.909 28.0075 137.692 27.5889C137.481 27.1702 137.185 26.8717 136.802 26.6933C136.425 26.5148 135.988 26.4256 135.491 26.4256C134.904 26.4256 134.406 26.556 133.998 26.8168C133.596 27.0707 133.267 27.4036 133.012 27.8154C132.763 28.2203 132.578 28.6561 132.457 29.1227C132.336 29.5826 132.272 30.0218 132.265 30.4404ZM139.147 29.4728L138.381 29.4933C138.413 28.9512 138.528 28.433 138.726 27.9389C138.93 27.4448 139.207 27.0055 139.558 26.6212C139.909 26.23 140.327 25.9212 140.812 25.6947C141.303 25.4682 141.855 25.355 142.468 25.355C143.004 25.355 143.482 25.4339 143.903 25.5918C144.324 25.7427 144.678 25.9864 144.965 26.3227C145.259 26.6521 145.482 27.0742 145.635 27.5889C145.789 28.1036 145.865 28.7213 145.865 29.4419V36.6994H144.717V29.4316C144.717 28.6423 144.608 28.0315 144.391 27.5992C144.181 27.1599 143.887 26.8545 143.511 26.683C143.134 26.5114 142.694 26.4256 142.19 26.4256C141.692 26.4325 141.255 26.532 140.879 26.7241C140.502 26.9094 140.187 27.1565 139.931 27.4653C139.683 27.7673 139.491 28.0933 139.357 28.4433C139.23 28.7933 139.159 29.1365 139.147 29.4728Z" fill="#3C4964"/>
<path d="M152.775 36.9053C152.099 36.9053 151.477 36.7715 150.909 36.5038C150.347 36.2362 149.856 35.8587 149.435 35.3715C149.02 34.8842 148.698 34.3077 148.468 33.642C148.245 32.9694 148.133 32.2351 148.133 31.439V30.9963C148.133 30.1385 148.251 29.363 148.487 28.6698C148.723 27.9766 149.049 27.383 149.464 26.8889C149.878 26.3947 150.35 26.0173 150.88 25.7565C151.416 25.4888 151.977 25.355 152.564 25.355C153.222 25.355 153.805 25.482 154.316 25.7359C154.826 25.9829 155.254 26.3364 155.598 26.7962C155.949 27.2492 156.214 27.7879 156.393 28.4124C156.571 29.0301 156.661 29.713 156.661 30.461V31.2125H148.822V30.1625H155.522V30.0184C155.509 29.3938 155.391 28.8105 155.168 28.2683C154.951 27.7193 154.625 27.2732 154.191 26.93C153.758 26.5869 153.215 26.4153 152.564 26.4153C152.079 26.4153 151.633 26.5251 151.225 26.7447C150.823 26.9643 150.475 27.28 150.181 27.6918C149.894 28.0967 149.671 28.5806 149.511 29.1433C149.358 29.6992 149.282 30.3169 149.282 30.9963V31.439C149.282 32.0567 149.365 32.6331 149.531 33.1685C149.703 33.6969 149.945 34.1636 150.258 34.5685C150.577 34.9734 150.953 35.2891 151.387 35.5156C151.821 35.7421 152.3 35.8553 152.823 35.8553C153.435 35.8553 153.978 35.7352 154.45 35.495C154.922 35.2479 155.346 34.8602 155.723 34.3317L156.44 34.9288C156.217 35.2857 155.936 35.6151 155.598 35.9171C155.266 36.219 154.868 36.4592 154.402 36.6377C153.936 36.8161 153.394 36.9053 152.775 36.9053Z" fill="#3C4964"/>
<path d="M161.79 34.095L164.288 25.5609H165.092L164.614 27.8565L162.001 36.6994H161.197L161.79 34.095ZM159.197 25.5609L161.388 34.1464L161.857 36.6994H161.025L158.02 25.5609H159.197ZM168.203 34.1155L170.337 25.5609H171.514L168.509 36.6994H167.686L168.203 34.1155ZM165.255 25.5609L167.714 34.0229L168.337 36.6994H167.533L164.862 27.8462L164.413 25.5609H165.255Z" fill="#3C4964"/>
<path d="M173.083 31.3052V30.9654C173.083 30.1556 173.192 29.4076 173.409 28.7213C173.626 28.035 173.935 27.4413 174.337 26.9403C174.746 26.4393 175.234 26.0516 175.801 25.7771C176.369 25.4957 177.001 25.355 177.696 25.355C178.398 25.355 179.033 25.4957 179.601 25.7771C180.169 26.0516 180.657 26.4393 181.065 26.9403C181.474 27.4413 181.786 28.035 182.003 28.7213C182.22 29.4076 182.329 30.1556 182.329 30.9654V31.3052C182.329 32.115 182.22 32.8631 182.003 33.5493C181.786 34.2288 181.474 34.819 181.065 35.32C180.663 35.821 180.178 36.2122 179.611 36.4936C179.043 36.7681 178.411 36.9053 177.716 36.9053C177.014 36.9053 176.379 36.7681 175.811 36.4936C175.243 36.2122 174.755 35.821 174.347 35.32C173.938 34.819 173.626 34.2288 173.409 33.5493C173.192 32.8631 173.083 32.115 173.083 31.3052ZM174.222 30.9654V31.3052C174.222 31.916 174.299 32.4959 174.452 33.0449C174.605 33.5871 174.829 34.0709 175.122 34.4964C175.415 34.9151 175.779 35.2445 176.213 35.4847C176.647 35.7249 177.148 35.845 177.716 35.845C178.277 35.845 178.772 35.7249 179.199 35.4847C179.633 35.2445 179.997 34.9151 180.29 34.4964C180.584 34.0709 180.804 33.5871 180.95 33.0449C181.104 32.4959 181.18 31.916 181.18 31.3052V30.9654C181.18 30.3615 181.104 29.7885 180.95 29.2463C180.804 28.7041 180.58 28.2203 180.28 27.7948C179.987 27.3693 179.623 27.033 179.189 26.7859C178.756 26.5388 178.258 26.4153 177.696 26.4153C177.135 26.4153 176.637 26.5388 176.203 26.7859C175.776 27.033 175.412 27.3693 175.112 27.7948C174.819 28.2203 174.596 28.7041 174.442 29.2463C174.296 29.7885 174.222 30.3615 174.222 30.9654Z" fill="#3C4964"/>
<path d="M185.841 27.4036V36.6994H184.702V25.5609H185.812L185.841 27.4036ZM189.506 25.4785L189.478 26.6109C189.35 26.5903 189.226 26.5732 189.104 26.5594C188.983 26.5457 188.852 26.5388 188.712 26.5388C188.214 26.5388 187.777 26.6384 187.401 26.8374C187.031 27.0295 186.718 27.3006 186.463 27.6506C186.208 27.9938 186.013 28.3987 185.879 28.8654C185.745 29.3252 185.669 29.8193 185.65 30.3478L185.228 30.5228C185.228 29.7953 185.299 29.1193 185.439 28.4948C185.579 27.8703 185.793 27.3247 186.08 26.858C186.374 26.3844 186.741 26.0173 187.181 25.7565C187.627 25.4888 188.151 25.355 188.75 25.355C188.897 25.355 189.041 25.3687 189.181 25.3962C189.328 25.4168 189.436 25.4442 189.506 25.4785Z" fill="#3C4964"/>
<path d="M192.445 20.8872V36.6994H191.306V20.8872H192.445ZM198.943 25.5609L194.1 30.7287L192.043 32.8699L191.87 31.6655L193.526 29.7404L197.498 25.5609H198.943ZM197.948 36.6994L193.622 30.914L194.253 29.8537L199.326 36.6994H197.948Z" fill="#3C4964"/>
<defs>
<clipPath id="clip0_1499_23">
<rect width="42.3368" height="52.7353" fill="white" transform="translate(0.87207 0.526855)"/>
</clipPath>
</defs>
</svg>
