<svg width="147" height="35" viewBox="0 0 147 35" fill="none" xmlns="http://www.w3.org/2000/svg">
<g clip-path="url(#clip0_1499_59)">
<path d="M19.3396 34.476C29.2962 34.476 37.3676 26.9356 37.3676 17.634C37.3676 8.33241 29.2962 0.791992 19.3396 0.791992C9.38296 0.791992 1.31152 8.33241 1.31152 17.634C1.31152 26.9356 9.38296 34.476 19.3396 34.476Z" fill="black"/>
<path d="M27.2215 7.02377C25.3906 7.08376 23.7908 8.02689 22.6021 9.3312C21.2836 10.7615 20.4077 12.4588 19.7757 14.1903C18.6461 13.3251 17.7746 12.2056 15.9623 11.7172C14.5604 11.3411 13.0897 11.4958 11.7366 12.4378C11.095 12.8853 10.6538 13.5615 10.4438 14.1969C9.89923 15.8491 11.0147 17.3196 11.5221 17.8482L12.6299 18.9557C12.8585 19.1735 13.4076 19.7411 13.1398 20.554C12.8489 21.4389 11.7083 22.0107 10.5376 21.6741C10.0148 21.5229 9.26344 21.16 9.43234 20.6488C9.5017 20.4388 9.66225 20.281 9.74895 20.1016C9.82794 19.9456 9.86519 19.8293 9.88896 19.7609C10.1028 19.1081 9.8106 18.2598 9.06307 18.0444C8.36499 17.8452 7.65214 18.0036 7.37535 18.8417C7.06067 19.7963 7.54939 21.5247 10.1651 22.2789C13.2297 23.159 15.8223 21.5991 16.1897 19.5665C16.4215 18.2934 15.805 17.3466 14.6779 16.1293L13.7595 15.1808C13.2027 14.6606 13.012 13.7757 13.5874 13.0959C14.0736 12.5218 14.7652 12.277 15.9 12.5644C17.555 12.9831 18.2929 14.0565 19.5234 14.9222C19.0154 16.4791 18.6827 18.042 18.3828 19.4447L18.1985 20.4886C17.318 24.7999 16.6469 27.1667 14.9014 28.5256C14.5501 28.7602 14.0466 29.1094 13.2894 29.134C12.8919 29.146 12.7641 28.8904 12.7577 28.7788C12.7487 28.5184 12.9844 28.399 13.1405 28.2821C13.3736 28.1627 13.7261 27.9659 13.7024 27.3353C13.6761 26.5878 13.0146 25.941 12.059 25.9716C11.3416 25.9938 10.2505 26.6232 10.2916 27.7775C10.334 28.9678 11.5221 29.8611 13.3138 29.8035C14.272 29.7741 16.4106 29.41 18.5177 27.0695C20.9702 24.3859 21.6568 21.3099 22.1731 19.0589L22.7485 16.0873C23.069 16.1227 23.4106 16.1473 23.7831 16.1551C26.8381 16.2163 28.3659 14.7374 28.3897 13.6623C28.4044 13.0113 27.9324 12.3712 27.271 12.3856C26.7983 12.3982 26.2036 12.6922 26.061 13.3029C25.9217 13.9029 27.0333 14.444 26.1644 14.9702C25.5473 15.344 24.4407 15.6068 22.8827 15.3932L23.1666 13.9299C23.7439 11.1557 24.4581 7.74311 27.1637 7.66092C27.3609 7.65132 28.0827 7.66932 28.0994 8.11449C28.1039 8.26328 28.0647 8.30168 27.8785 8.64245C27.6877 8.90763 27.6165 9.13382 27.6248 9.3942C27.6518 10.1021 28.2278 10.5677 29.0621 10.5401C30.1776 10.5059 30.4987 9.49139 30.4807 8.96943C30.4345 7.74251 29.0511 6.96857 27.2215 7.02377Z" fill="white"/>
<path d="M110.619 12.8955C114.776 12.8955 117.563 15.7015 117.563 19.5832C117.563 23.2412 114.722 26.2704 110.619 26.2704C106.491 26.2704 103.649 23.2412 103.649 19.5832C103.649 15.7015 106.435 12.8955 110.619 12.8955ZM110.619 24.3697C113.568 24.3697 114.881 21.8643 114.881 19.5832C114.881 17.1546 113.299 14.8004 110.619 14.8004C107.911 14.8004 106.329 17.1546 106.329 19.5832C106.329 21.8643 107.643 24.3697 110.619 24.3697Z" fill="black"/>
<path d="M103.304 14.0845V13.1959H99.6831V11.9816C99.6831 10.2532 99.9522 8.94885 102.122 8.94885C102.162 8.94885 102.204 8.95245 102.246 8.95425C102.251 8.95425 102.249 8.94765 102.254 8.94765C102.857 8.98845 103.359 8.53068 103.392 7.96792L103.436 7.19638C102.927 7.12078 102.389 7.04639 101.747 7.04639C98.0204 7.04639 97.1631 9.07544 97.1631 12.182V13.1959H93.9424V14.1877C94.0252 14.7018 94.4966 15.0984 95.0714 15.0984C95.074 15.0984 95.0772 15.1008 95.0804 15.1008H97.1631V25.9714H98.5502C98.5534 25.9714 98.5515 25.9714 98.5547 25.9714C99.1327 25.9714 99.6041 25.5647 99.6824 25.0469V15.1008H102.204C102.797 15.0822 103.274 14.6388 103.304 14.0845Z" fill="black"/>
<path d="M69.7321 13.196C69.7283 13.196 69.725 13.199 69.7186 13.199C69.1882 13.199 68.6737 13.5398 68.449 14.0012L64.9817 23.7673H64.9277L61.5363 14.006C61.314 13.5422 60.7977 13.1984 60.2634 13.1984C60.257 13.1984 60.255 13.1954 60.2499 13.1954H58.4922L63.1309 25.119C63.2927 25.5455 63.6151 26.1971 63.6151 26.4713C63.6151 26.7233 62.8637 29.6271 60.6102 29.6271C60.555 29.6271 60.4984 29.6211 60.4439 29.6175C59.8691 29.5881 59.4349 29.963 59.3393 30.5408L59.2705 31.3561C59.7265 31.4311 60.1838 31.5319 60.9878 31.5319C64.3119 31.5319 65.3041 28.6995 66.2436 26.2457L71.283 13.1948H69.7321V13.196Z" fill="black"/>
<path d="M53.71 15.7908C51.6292 14.796 49.3513 14.1199 49.3115 12.1184C49.3179 9.99279 51.4089 9.43423 53.0196 9.43603C53.0273 9.43483 53.0337 9.43483 53.0376 9.43483C53.7376 9.43483 54.2969 9.49963 54.8435 9.61182C54.8505 9.61182 54.8492 9.60342 54.8576 9.60342C55.4356 9.64302 55.9204 9.22124 55.9879 8.68968L56.0341 7.91754C54.9777 7.67275 53.8737 7.54736 52.913 7.54736C49.4097 7.56776 46.8082 9.21465 46.7998 12.3578C46.8037 15.1056 48.7855 16.1705 50.9189 17.1353C53.01 18.0748 55.2994 18.85 55.3193 21.1184C55.3078 23.484 52.8635 24.3558 51.179 24.3594C50.1939 24.3558 49.1246 24.1272 48.2229 23.8614C47.6584 23.7744 47.1954 24.24 47.1216 24.8561L47.0458 25.5437C48.2846 25.9175 49.5542 26.2444 50.8316 26.2444C50.8316 26.2444 50.8329 26.2444 50.8342 26.2444C50.8374 26.2444 50.8419 26.2444 50.8457 26.2444C54.7709 26.2174 57.8214 24.7553 57.8336 20.9582C57.8291 18.0292 55.8325 16.7987 53.71 15.7908Z" fill="black"/>
<path d="M91.829 25.9712C91.831 25.9712 91.831 25.9712 91.8323 25.9712C92.3762 25.9712 92.8302 25.6136 92.9439 25.1379V17.78C92.9439 14.9992 91.6865 12.8945 88.1986 12.8945C86.9656 12.8945 84.9016 13.5473 83.9626 15.3754C83.2395 13.6469 81.6571 12.8945 80.0766 12.8945C78.0646 12.8945 76.6967 13.5707 75.7321 15.0496H75.6782V14.2552C75.6705 13.6703 75.1638 13.1981 74.537 13.1981C74.5312 13.1981 74.5286 13.1951 74.5248 13.1951H73.3193V25.9706H74.6834C74.6853 25.9706 74.6853 25.9706 74.6866 25.9706C75.3185 25.9706 75.8297 25.4912 75.8297 24.9021C75.8297 24.8859 75.8355 24.8799 75.8413 24.8691V19.5325C75.8413 17.1536 76.8592 14.7994 79.4325 14.7994C81.4689 14.7994 81.8742 16.7775 81.8742 18.3559V25.97H83.2569C83.2581 25.97 83.2581 25.97 83.2607 25.97C83.858 25.97 84.339 25.541 84.3923 24.9963V19.5325C84.3923 17.1536 85.4121 14.7994 87.9854 14.7994C90.0232 14.7994 90.4258 16.7775 90.4258 18.3559V25.97H91.829V25.9712Z" fill="black"/>
<path d="M130.778 25.9717C130.779 25.9717 130.779 25.9717 130.781 25.9717C131.396 25.9717 131.891 25.5181 131.92 24.95V18.3816C131.92 14.9505 130.336 12.895 126.797 12.895C124.894 12.895 123.072 13.7728 122.319 15.2265H122.266V14.2719C122.266 14.2707 122.264 14.2707 122.264 14.2683C122.264 13.6762 121.751 13.1986 121.121 13.1986C121.114 13.1986 121.113 13.1956 121.108 13.1956H119.825V25.9711H121.21C121.21 25.9711 121.21 25.9711 121.213 25.9711C121.813 25.9711 122.299 25.5349 122.345 24.9854V20.0591C122.345 16.9537 123.633 14.7999 126.502 14.7999C128.703 14.9241 129.397 16.376 129.397 19.3578V25.9705H130.778V25.9717Z" fill="black"/>
<path d="M144.347 13.196C144.34 13.196 144.338 13.199 144.333 13.199C143.801 13.199 143.286 13.5398 143.062 14.0012L139.596 23.7673H139.54L136.148 14.006C135.925 13.5422 135.409 13.1984 134.876 13.1984C134.871 13.1984 134.868 13.1954 134.863 13.1954H133.105L137.745 25.119C137.905 25.5455 138.23 26.1971 138.23 26.4713C138.23 26.7233 137.478 29.6271 135.223 29.6271C135.169 29.6271 135.114 29.6211 135.057 29.6175C134.482 29.5881 134.05 29.963 133.951 30.5408L133.884 31.3561C134.339 31.4311 134.797 31.5319 135.602 31.5319C138.926 31.5319 139.917 28.6995 140.858 26.2457L145.898 13.1948H144.347V13.196Z" fill="black"/>
</g>
<defs>
<clipPath id="clip0_1499_59">
<rect width="145.533" height="34.6076" fill="white" transform="translate(0.780273 0.347168)"/>
</clipPath>
</defs>
</svg>
