<svg width="156" height="36" viewBox="0 0 156 36" fill="none" xmlns="http://www.w3.org/2000/svg">
<g clip-path="url(#clip0_1499_67)">
<path d="M90.4772 14.1704H84.3363V14.833C86.2571 14.833 86.5659 15.2517 86.5659 17.7292V22.1956C86.5659 24.6728 86.2574 25.1265 84.3363 25.1265C82.8615 24.9173 81.8663 24.1145 80.4941 22.5793L78.9161 20.8349C81.0429 20.4506 82.1748 19.0902 82.1748 17.5547C82.1748 15.636 80.5628 14.1704 77.5436 14.1704H71.5059V14.833C73.4267 14.833 73.7355 15.2517 73.7355 17.7292V22.1956C73.7355 24.6728 73.4267 25.1265 71.5059 25.1265V25.7893H78.3326V25.1265C76.4118 25.1265 76.103 24.6728 76.103 22.1956V20.9398H76.6859L80.4941 25.7893H90.4772C95.3828 25.7893 97.5099 23.1379 97.5099 19.9622C97.5099 16.7872 95.3831 14.1704 90.4772 14.1704ZM76.1032 19.8573V15.2173H77.5095C79.0531 15.2173 79.7395 16.2989 79.7395 17.5549C79.7395 18.7764 79.0531 19.8576 77.5095 19.8576L76.1032 19.8573ZM90.5803 24.7078H90.34C89.1053 24.7078 88.9337 24.394 88.9337 22.7888V15.2173C88.9337 15.2173 90.4431 15.2173 90.5803 15.2173C94.1481 15.2173 94.7996 17.8688 94.7996 19.9276C94.7996 22.0557 94.1478 24.7078 90.5803 24.7078Z" fill="#00749A"/>
<path d="M52.3981 21.1487L54.7653 14.0302C55.4517 11.9717 55.1428 11.3788 52.9473 11.3788V10.6807H59.3967V11.3788C57.2356 11.3788 56.721 11.9021 55.8633 14.4492L51.9521 26.3822H51.5063L48.0067 15.4609L44.4392 26.3822H43.9932L40.1853 14.4492C39.362 11.9021 38.8131 11.3788 36.8232 11.3788V10.6807H44.4392V11.3788C42.415 11.3788 41.8658 11.8671 42.5866 14.0302L44.885 21.1487L48.3499 10.6807H49.0019L52.3981 21.1487Z" fill="#00749A"/>
<path d="M64.0613 26.2424C60.2878 26.2424 57.2002 23.4164 57.2002 19.9616C57.2002 16.5424 60.2881 13.7158 64.0613 13.7158C67.8351 13.7158 70.9224 16.5424 70.9224 19.9616C70.9224 23.4164 67.8351 26.2424 64.0613 26.2424ZM64.0613 14.7983C60.9055 14.7983 59.8074 17.6939 59.8074 19.9619C59.8074 22.2652 60.9055 25.1261 64.0613 25.1261C67.2521 25.1261 68.3499 22.2652 68.3499 19.9619C68.3499 17.6939 67.2521 14.7983 64.0613 14.7983Z" fill="#00749A"/>
<path d="M105.983 25.0915V25.7893H98.127V25.0915C100.426 25.0915 100.837 24.4985 100.837 21.0088V15.4265C100.837 11.9368 100.426 11.3788 98.127 11.3788V10.6807H105.228C108.762 10.6807 110.718 12.53 110.718 15.0078C110.718 17.4154 108.762 19.2994 105.228 19.2994H103.273V21.0085C103.273 24.4985 103.684 25.0915 105.983 25.0915ZM105.228 11.9368H103.273V18.0083H105.228C107.15 18.0083 108.041 16.6476 108.041 15.0078C108.041 13.333 107.15 11.9368 105.228 11.9368Z" fill="#464342"/>
<path d="M134.285 22.5097L134.114 23.1376C133.805 24.2891 133.427 24.7078 130.992 24.7078H130.511C128.728 24.7078 128.419 24.2891 128.419 21.8118V20.207C131.095 20.207 131.301 20.4509 131.301 22.2655H131.953V17.0663H131.301C131.301 18.8807 131.095 19.1248 128.419 19.1248V15.2173H130.305C132.742 15.2173 133.119 15.636 133.427 16.7875L133.599 17.4501H134.148L133.908 14.1704H123.822V14.833C125.743 14.833 126.052 15.2517 126.052 17.7292V22.1956C126.052 24.4618 125.79 25.0327 124.275 25.1141C122.835 24.8905 121.847 24.0919 120.495 22.5793L118.917 20.8349C121.044 20.4506 122.176 19.0902 122.176 17.5547C122.176 15.636 120.564 14.1704 117.545 14.1704H111.507V14.833C113.428 14.833 113.736 15.2517 113.736 17.7292V22.1956C113.736 24.6728 113.428 25.1265 111.507 25.1265V25.7893H118.334V25.1265C116.413 25.1265 116.104 24.6728 116.104 22.1956V20.9398H116.687L120.495 25.7893H134.595L134.801 22.51L134.285 22.5097ZM116.104 19.8573V15.2173H117.51C119.054 15.2173 119.74 16.2989 119.74 17.5549C119.74 18.7764 119.054 19.8576 117.51 19.8576L116.104 19.8573Z" fill="#464342"/>
<path d="M141.249 26.2425C139.877 26.2425 138.676 25.51 138.162 25.0561C137.99 25.2309 137.681 25.7542 137.613 26.2425H136.961V21.428H137.647C137.922 23.7307 139.499 25.0914 141.524 25.0914C142.621 25.0914 143.514 24.4635 143.514 23.4169C143.514 22.5098 142.725 21.8117 141.318 21.1488L139.362 20.2068C137.99 19.5434 136.961 18.3919 136.961 16.857C136.961 15.1822 138.505 13.7519 140.632 13.7519C141.764 13.7519 142.724 14.1706 143.308 14.6589C143.479 14.5193 143.651 14.1353 143.754 13.7163H144.406V17.8339H143.685C143.445 16.1938 142.553 14.8331 140.735 14.8331C139.774 14.8331 138.882 15.3914 138.882 16.264C138.882 17.1711 139.603 17.6594 141.249 18.4272L143.136 19.3692C144.783 20.1716 145.434 21.4632 145.434 22.5098C145.434 24.7076 143.548 26.2425 141.249 26.2425Z" fill="#464342"/>
<path d="M151.815 26.2425C150.442 26.2425 149.241 25.51 148.727 25.0561C148.556 25.2309 148.247 25.7542 148.179 26.2425H147.527V21.428H148.213C148.487 23.7307 150.065 25.0914 152.089 25.0914C153.187 25.0914 154.079 24.4635 154.079 23.4169C154.079 22.5098 153.29 21.8117 151.883 21.1488L149.928 20.2068C148.556 19.5434 147.526 18.3919 147.526 16.857C147.526 15.1822 149.07 13.7519 151.197 13.7519C152.329 13.7519 153.29 14.1706 153.873 14.6589C154.045 14.5193 154.216 14.1353 154.319 13.7163H154.971V17.8339H154.251C154.01 16.1938 153.118 14.8331 151.3 14.8331C150.34 14.8331 149.447 15.3914 149.447 16.264C149.447 17.1711 150.168 17.6594 151.815 18.4272L153.701 19.3692C155.348 20.1716 156 21.4632 156 22.5098C156 24.7076 154.113 26.2425 151.815 26.2425Z" fill="#464342"/>
<path d="M2.51562 17.9996C2.51562 24.1117 6.008 29.3937 11.0722 31.8968L3.83007 11.7153C2.98767 13.6358 2.51562 15.761 2.51562 17.9996Z" fill="#464342"/>
<path d="M27.947 17.2203C27.947 15.312 27.273 13.9903 26.695 12.9617C25.9254 11.6897 25.204 10.6126 25.204 9.3406C25.204 7.92115 26.2625 6.59983 27.7535 6.59983C27.8208 6.59983 27.8846 6.60835 27.9502 6.61217C25.2491 4.09528 21.6504 2.55859 17.6978 2.55859C12.3938 2.55859 7.72738 5.3264 5.0127 9.51866C5.3689 9.52953 5.70458 9.53717 5.98972 9.53717C7.57774 9.53717 10.0359 9.34119 10.0359 9.34119C10.8543 9.29212 10.9508 10.5147 10.1333 10.6131C10.1333 10.6131 9.31078 10.7116 8.39558 10.7604L13.9243 27.4862L17.2469 17.3514L14.8814 10.7598C14.0639 10.711 13.2894 10.6126 13.2894 10.6126C12.4712 10.5638 12.5671 9.29153 13.3853 9.3406C13.3853 9.3406 15.8925 9.53658 17.3844 9.53658C18.9721 9.53658 21.4305 9.3406 21.4305 9.3406C22.2495 9.29153 22.3457 10.5141 21.5279 10.6126C21.5279 10.6126 20.7037 10.711 19.7902 10.7598L25.2768 27.359L26.7912 22.2121C27.4475 20.0763 27.947 18.5422 27.947 17.2203Z" fill="#464342"/>
<path d="M17.9644 19.3501L13.4092 32.8127C14.7693 33.2194 16.2076 33.4418 17.698 33.4418C19.466 33.4418 21.1615 33.131 22.7397 32.5665C22.699 32.5004 22.662 32.4302 22.6317 32.3538L17.9644 19.3501Z" fill="#464342"/>
<path d="M31.0197 10.5913C31.085 11.0832 31.122 11.6112 31.122 12.1791C31.122 13.7461 30.8343 15.5075 29.9676 17.71L25.3301 31.3472C29.8437 28.6702 32.8796 23.6967 32.8796 18C32.8799 15.3154 32.2056 12.7909 31.0197 10.5913Z" fill="#464342"/>
<path d="M17.6979 0C7.93953 0 0 8.07453 0 17.9996C0 27.9258 7.93953 36 17.6979 36C27.456 36 35.3967 27.9258 35.3967 17.9996C35.3964 8.07453 27.456 0 17.6979 0ZM17.6979 35.1749C8.38702 35.1749 0.811489 27.47 0.811489 17.9996C0.811489 8.52966 8.38673 0.825347 17.6979 0.825347C27.0085 0.825347 34.5835 8.52966 34.5835 17.9996C34.5835 27.47 27.0085 35.1749 17.6979 35.1749Z" fill="#464342"/>
</g>
<defs>
<clipPath id="clip0_1499_67">
<rect width="156" height="36" fill="white"/>
</clipPath>
</defs>
</svg>
