<svg xmlns="http://www.w3.org/2000/svg" viewBox="0 0 32 32" xml:space="preserve"><path d="m29.95 11.09-.02-.08-.02-.07a.65.65 0 0 0-.32-.41c-.16-.08-.31-.1-.48-.13.01-.17.04-.34.03-.52l-.04-.71c-.02-.55.04-1.1.03-1.65a.76.76 0 0 0-.28-.57l-.1-.17a.82.82 0 0 0-.35-.2.83.83 0 0 0-.37 0h-.81l-1.01.07c-.7.06-1.42.05-2.13.07l-2.27.03c-.74.02-1.5.02-2.24.01-1.5-.02-2.99-.01-4.48-.03-.72-.01-1.45-.04-2.17-.09-.76-.05-1.52-.05-2.28-.01l-1.65.07H7.3c-.57-.02-1.16-.02-1.74-.03-.58-.01-1.16-.04-1.74-.07-.42-.01-.76.37-.76.77a.83.83 0 0 0-.16.46c0 .63.02 1.25.05 1.88.02.35 0 .7.07 1.04.01.06.04.11.07.17a.74.74 0 0 0-.29.2c-.3.05-.57.24-.63.55-.14.7-.13 1.4-.14 2.1v.92c-.01.26-.03.51-.02.76 0 .1.02.2.06.28l-.02.1c0 .4.35.79.77.76h.05c0 .24 0 .48.02.73.01.27 0 .56.04.84a.75.75 0 0 0-.05.26c0 .4.35.8.78.78.4-.02.82-.05 1.23-.05a7.5 7.5 0 0 1 1.94.3c.23.05.47.12.7.2.23.11.44.24.65.4.35.27.7.56.98.9.31.43.6.9.81 1.38.17.48.23.98.3 1.47.02.13.01.25 0 .38-.01.2.1.4.25.53.07.34.36.63.72.61.39-.02.77-.04 1.16-.04.36 0 .72.03 1.08.06.6.05 1.18.05 1.77.05h2.38c.32 0 .63.02.95.03l.87.02h1.06c.31.02.57-.21.66-.5.2-.09.37-.25.41-.47a7.04 7.04 0 0 1 1.37-2.84c.46-.56.98-1.08 1.55-1.53a9.7 9.7 0 0 1 1.63-1 5.33 5.33 0 0 1 1.96-.36c.22-.01.41-.07.57-.23a.8.8 0 0 0 .23-.57.8.8 0 0 0-.05-.26l.01-.04c-.02-.63 0-1.26 0-1.9a.7.7 0 0 0 .22.05c.42 0 .7-.33.73-.73v-.5l.01-.89.03-.94c0-.27.04-.54.08-.81l.06-.4a.92.92 0 0 0-.03-.43zm-1.74 3.14h-.73l-1.48.03-2.5.03c.03-.07.05-.15.05-.22-.04-.39-.02-.78-.02-1.17l.03-.9a43.75 43.75 0 0 1 4.8-.13h.06a7.6 7.6 0 0 0-.02.52l-.02 1.09-.03.75h-.14zM8.07 12.37l.01 1.61c0 .39 0 .78-.03 1.17a20.32 20.32 0 0 1-2.14-.06c-.35-.02-.7-.02-1.05-.02h-.5l-.87-.01a25.27 25.27 0 0 1 .07-2.54l.03-.15a75.48 75.48 0 0 0 2.43 0l.82-.01h1.23zm17.6 5.3a9.43 9.43 0 0 0-3.04 2.14 8.38 8.38 0 0 0-1.96 2.84c-.2.45-.38.91-.51 1.39H19.05l-1.93-.01c-.69 0-1.37-.02-2.06-.03l-1.08-.03c-.35-.02-.7-.05-1.04-.1-.41-.04-.83-.06-1.25-.06l-.11-.6c-.06-.36-.1-.73-.23-1.08-.14-.38-.33-.74-.51-1.1a5.02 5.02 0 0 0-1.73-2.04 4.28 4.28 0 0 0-1.14-.7c-.32-.12-.64-.2-.97-.3-.18-.04-.36-.1-.55-.13l-.66-.1c-.35-.05-.7-.1-1.06-.12h-.27V16.5c.48-.01.95-.03 1.43-.01a49.28 49.28 0 0 0 2.22 0c.2.01.4 0 .6.03h-.03a.69.69 0 0 0 .77-.7l-.02-.1a.68.68 0 0 0 .13-.41v-.55c0-.26-.02-.52 0-.79.02-.62.06-1.23.06-1.86a.74.74 0 0 0-.1-.36c.01-.15 0-.3-.08-.43-.09-.15-.27-.32-.44-.34a2.15 2.15 0 0 0-.4-.03l-.33.01H6.21c-.45 0-.9 0-1.35-.03l-.42-.02a.66.66 0 0 0 .11-.38V9.7c0-.53.03-1.05.05-1.58h1.55c.79.01 1.56.02 2.35 0l1.13-.03 1.15-.04c.75-.02 1.5.02 2.24.05.74.02 1.48.05 2.23.06h4.5c.73.01 1.46.02 2.2.01h1.68c.55.02 1.11.04 1.67.04.5 0 .98-.04 1.47-.08.3-.02.59-.02.88-.02v.91c0 .38 0 .75-.03 1.13l-.03.22-1.13.05c-.59.01-1.18.05-1.78.07-.63.01-1.26 0-1.9.06a.8.8 0 0 0-.53.22.75.75 0 0 0-.21.52l.02.12-.02.08.01 1.4c.02.39.05.79.02 1.18-.01.2.09.39.23.53a.74.74 0 0 0-.17.45c0 .41.35.79.77.77.54-.02 1.07-.07 1.61-.1.5-.04 1-.03 1.5-.04h1.23c.03.52.05 1.04.05 1.56-.56.08-1.1.2-1.63.42z" /></svg>