<svg viewBox="0 0 72 72" xmlns="http://www.w3.org/2000/svg"><path fill="#A57939" d="m23 34-1-5 3-3 3-2 2-7 1-4 9 5c2 2 4 2 4 4 1 2 0 4-1 5l5 1 2 3-1 4 4 1 3 3c1 2 0 4-2 6l4 1c2 1 2 3 2 5 0 4-5 5-5 5H45l-18-1c-6 1-13-1-13-4s2-4 3-5l2-1-2-4 3-5 3-2z"/><path fill="#6A462F" d="m31 13 9 5c2 2 4 2 4 4 1 2 0 4-1 5l5 1 2 3-1 4 4 1 3 3c1 2 0 4-2 6l4 1c2 1 2 3 2 5 0 4-5 5-5 5-2 1-15-1-10-2 6-1 8-3 8-3 1-2-2-4-4-4 0-3-1-6-6-7 1-3 0-8-4-9 2-4 0-7-1-10-2-4-3-6-7-8z"/><ellipse cx="27.2" cy="39.4" rx="4.9" ry="6.9" fill="#FFF"/><ellipse cx="43.6" cy="38.9" rx="4.9" ry="6.9" fill="#FFF"/><path fill="none" stroke="#000" stroke-linecap="round" stroke-linejoin="round" stroke-width="2" d="M19 45s-3-4-1-7c1-2 5-3 5-3m20-8c0-1 2-3 1-5 0-1-1-3-5-5l-8-4v3l-1 5m24 24c1 0 5 1 6 4s-2 7-6 7l-12-2M24 35h-1l-1-4c0-3 2-5 4-6l5-1 4-3m14 15v-1s2-3 1-5c-1-3-6-3-7-3a18 18 0 0 1-11 8m-1 10 9-3m-16 3h1m25-10 4 2c1 2 3 5 0 7-3 3-6 5-10 6-6 2-15 5-21 5-5 0-9-1-9-5s8-5 10-5"/><path fill="none" stroke="#000" stroke-miterlimit="10" stroke-width="2.4" d="m31 45-3 1c-3 0-5-3-5-7s2-6 5-6 5 3 5 6l-2 6M40 42l-1-3c0-4 2-7 5-7s5 3 5 7-2 7-5 7c-2 0-3-2-4-4"/><path d="M46 39a2 2 0 1 1-4 0 2 2 0 0 1 4 0M30 39a2 2 0 1 1-4 0 2 2 0 0 1 4 0"/></svg>