<svg viewBox="0 0 24 24" fill="none" xmlns="http://www.w3.org/2000/svg"><path d="M19.1 15.57c1.96-3.63-2.15-4.4-2.15-4.4C18.12 7.56 14.5 7.2 14.5 7.2c.48-1.42-2.48-2.95-2.1-3.83.14-.34-.06-.34-.06-.34a4.98 4.98 0 0 0-3.53 4.5c0 .3-2.61.28-2.4 3.65.02.18-.05.33-.2.4-1.92.8-2 3.09-1.67 3.83h-.04c-1.64.16-2.2 1.53-2.2 2.64 0 1.17.8 2.92 3.13 2.92 1.29 0 2.15-.21 5.2-.21 3.05 0 4.09.21 7.96.21h.51c.73 0 2.62-.65 2.62-2.48 0-1.82-1.74-2.92-2.61-2.92Z" fill="url(#a)"/><path d="M19.1 15.57c1.96-3.63-2.15-4.4-2.15-4.4C18.12 7.56 14.5 7.2 14.5 7.2c.48-1.42-2.48-2.95-2.1-3.83.14-.34-.06-.34-.06-.34a4.98 4.98 0 0 0-3.53 4.5c0 .3-2.61.28-2.4 3.65.02.18-.05.33-.2.4-1.92.8-2 3.09-1.67 3.83h-.04c-1.64.16-2.2 1.53-2.2 2.64 0 1.17.8 2.92 3.13 2.92 1.29 0 2.15-.21 5.2-.21 3.05 0 4.09.21 7.96.21h.51c.73 0 2.62-.65 2.62-2.48 0-1.82-1.74-2.92-2.61-2.92Z" fill="url(#b)"/><path d="M16.95 11.18C18.12 7.55 14.5 7.2 14.5 7.2c.48-1.42-2.41-2.87-2.1-3.83.12-.35-.06-.34-.06-.34a4.98 4.98 0 0 0-3.53 4.5c0 .3-2.61.28-2.4 3.65.02.17-.04.34-.2.4 2.12 0 3.07 4.72 12.9 3.99 1.91-3.78-2.15-4.4-2.15-4.4Z" fill="url(#c)"/><path d="M16.95 11.18C18.12 7.55 14.5 7.2 14.5 7.2c.48-1.42-2.41-2.87-2.1-3.83.12-.35-.06-.34-.06-.34a4.98 4.98 0 0 0-3.53 4.5c0 .3-2.61.28-2.4 3.65.02.17-.04.34-.2.4 2.12 0 3.07 4.72 12.9 3.99 1.91-3.78-2.15-4.4-2.15-4.4Z" fill="url(#d)"/><path d="M14.5 7.2c.47-1.42-2.44-2.9-2.1-3.83.11-.35-.07-.34-.07-.34a4.98 4.98 0 0 0-3.53 4.5s-.3 3.58 8.15 3.65C18.12 7.55 14.5 7.2 14.5 7.2Z" fill="url(#e)"/><path d="M10.62 20.75c3.05 0 4.09.22 7.96.22-10.04 0-12.24-5.56-14.05-5.56 0 0-.01 0 0 0-1.77.2-2.24 1.6-2.24 2.64 0 1.17.8 2.92 3.13 2.92 1.29 0 2.14-.22 5.2-.22Z" fill="url(#f)"/><path d="M9.67 4.97a4.74 4.74 0 0 0-.87 2.57s-.3 3.57 8.15 3.64c-6.56-.4-8.52-3.44-7.28-6.2Z" fill="url(#g)"/><path d="M19.1 15.57c.3-.59.45-1.1.5-1.55-.5 1.55-4.79 1.64-8.3.24C8.2 13 6.64 11.29 6.46 10.1c-.05.32-.07.67-.04 1.08.01.17-.04.34-.21.4 1.6.15 3.07 4.7 12.9 3.98Z" fill="url(#h)"/><path d="m4.45 15.42.08-.01h-.08Z" fill="url(#i)"/><path opacity=".5" d="M14.5 7.2c.47-1.42-2.44-2.9-2.1-3.83.11-.35-.07-.34-.07-.34a4.98 4.98 0 0 0-3.53 4.5s-.3 3.58 8.15 3.65C18.12 7.55 14.5 7.2 14.5 7.2Z" fill="url(#j)"/><path opacity=".5" d="M14.5 7.2c.47-1.42-2.44-2.9-2.1-3.83.11-.35-.07-.34-.07-.34a4.98 4.98 0 0 0-3.53 4.5s-.3 3.58 8.15 3.65C18.12 7.55 14.5 7.2 14.5 7.2Z" fill="url(#k)"/><path d="M12.03 6c.49 1.07 2.46 1.2 2.46 1.2.42-1.26-1.82-2.57-2.1-3.5.01 0-.8 1.3-.36 2.3Z" fill="url(#l)"/><path d="M12.03 6c.49 1.07 2.46 1.2 2.46 1.2.42-1.26-1.82-2.57-2.1-3.5.01 0-.8 1.3-.36 2.3Z" fill="url(#m)"/><path opacity=".5" d="M16.95 11.18C8.5 11.1 8.8 7.54 8.8 7.54c0 .3-2.61.27-2.4 3.64.02.17-.04.34-.2.4 2.12 0 3.07 4.72 12.9 3.99 1.91-3.78-2.15-4.4-2.15-4.4Z" fill="url(#n)"/><path d="M6.41 11.18c.01.17-.05.33-.21.4.16-.06.22-.23.21-.4Z" fill="url(#o)"/><path opacity=".5" d="M19.1 15.57c-9.83.73-10.77-3.99-12.9-3.99-1.91.8-2 3.1-1.67 3.83H4.5c-1.64.16-2.2 1.53-2.2 2.64 0 1.17.8 2.92 3.13 2.92 1.29 0 2.15-.22 5.2-.22 3.05 0 4.09.22 7.96.22h.51c.73 0 2.62-.66 2.62-2.48 0-1.82-1.74-2.92-2.61-2.92Z" fill="url(#p)"/><path d="M10.62 20.75c3.05 0 4.09.22 7.96.22-10.04 0-12.24-5.56-14.05-5.56 0 0-.01 0 0 0-1.77.2-2.24 1.6-2.24 2.64 0 1.17.8 2.92 3.13 2.92 1.29 0 2.14-.22 5.2-.22Z" fill="url(#q)"/><path opacity=".24" d="M10.62 20.75c3.05 0 4.09.22 7.96.22-10.04 0-12.24-5.56-14.05-5.56 0 0-.01 0 0 0-1.77.2-2.24 1.6-2.24 2.64 0 1.17.8 2.92 3.13 2.92 1.29 0 2.14-.22 5.2-.22Z" fill="url(#r)"/><path opacity=".24" d="M19.1 15.57c-9.83.73-10.77-3.99-12.9-3.99-1.91.8-2 3.1-1.67 3.83H4.5c-1.64.16-2.2 1.53-2.2 2.64 0 1.17.8 2.92 3.13 2.92 1.29 0 2.15-.22 5.2-.22 3.05 0 4.09.22 7.96.22h.51c.73 0 2.62-.66 2.62-2.48 0-1.82-1.74-2.92-2.61-2.92Z" fill="url(#s)"/><path opacity=".75" d="M12.74 12.17c0 1.25.93 2.26 2.07 2.26 1.14 0 2.07-1.01 2.07-2.26 0-1.26-.93-2.14-2.07-2.14-1.14 0-2.07.88-2.07 2.14Z" fill="url(#t)"/><path opacity=".75" d="M12.74 12.45c0 1.25.93 2.26 2.07 2.26 1.14 0 2.07-1 2.07-2.26 0-1.25-.93-2.08-2.07-2.08-1.14 0-2.07.83-2.07 2.08Z" fill="url(#u)"/><path opacity=".75" d="M7.11 12.17c0 1.25.93 2.26 2.07 2.26 1.15 0 2.07-1.01 2.07-2.26 0-1.26-.92-2.14-2.07-2.14-1.14 0-2.07.88-2.07 2.14Z" fill="url(#v)"/><path opacity=".75" d="M7.11 12.45c0 1.25.93 2.26 2.07 2.26 1.15 0 2.07-1 2.07-2.26 0-1.25-.92-2.08-2.07-2.08-1.14 0-2.07.83-2.07 2.08Z" fill="url(#w)"/><path d="M14.82 14.43a2.07 2.07 0 1 0 0-4.14 2.07 2.07 0 0 0 0 4.14Z" fill="url(#x)"/><path d="M15.84 13.98a1.91 1.91 0 1 0-2.04-3.24 1.91 1.91 0 0 0 2.04 3.24Z" fill="#fff"/><path d="M14.82 14.27a1.91 1.91 0 1 0 0-3.82 1.91 1.91 0 0 0 0 3.82Z" fill="url(#y)"/><path d="M14.82 14.27a1.91 1.91 0 1 0 0-3.82 1.91 1.91 0 0 0 0 3.82Z" fill="url(#z)"/><path d="M14.82 14.43a2.07 2.07 0 1 0 0-4.14 2.07 2.07 0 0 0 0 4.14Z" fill="url(#A)"/><path d="M14.82 13.3a.95.95 0 1 0 0-1.89.95.95 0 0 0 0 1.9Z" fill="url(#B)"/><path d="M14.82 13.02c.37 0 .7-.17.92-.45a.95.95 0 0 1-.92.74.94.94 0 0 1-.92-.74c.2.27.54.45.92.45Z" fill="url(#C)"/><path d="M12 18.4c-2.63 0-3.47-2.83-2.67-2.39 1.07.6 1.76.65 2.67.65.91 0 1.6-.05 2.67-.65.8-.44-.04 2.38-2.67 2.38Z" fill="url(#D)"/><path d="M14.67 16.01c-1.07.6-1.76.65-2.67.65-.91 0-1.6-.05-2.67-.65-.28-.15-.36.09-.24.47 0 0 .04-.42.42-.13 0 0 1.39.83 2.48.83 1.1 0 2.49-.83 2.49-.83.38-.28.42.12.42.13.13-.38.05-.62-.23-.47Z" fill="url(#E)"/><path d="M9.18 14.43a2.07 2.07 0 1 0 0-4.14 2.07 2.07 0 0 0 0 4.14Z" fill="url(#F)"/><path d="M10.2 13.98a1.91 1.91 0 1 0-2.03-3.24 1.91 1.91 0 0 0 2.03 3.24Z" fill="#fff"/><path d="M9.18 14.27a1.91 1.91 0 1 0 0-3.82 1.91 1.91 0 0 0 0 3.82Z" fill="url(#G)"/><path d="M9.18 14.27a1.91 1.91 0 1 0 0-3.82 1.91 1.91 0 0 0 0 3.82Z" fill="url(#H)"/><path d="M9.18 14.43a2.07 2.07 0 1 0 0-4.14 2.07 2.07 0 0 0 0 4.14Z" fill="url(#I)"/><path d="M9.18 13.3a.95.95 0 1 0 0-1.89.95.95 0 0 0 0 1.9Z" fill="url(#J)"/><path d="M9.18 13.02c.37 0 .71-.17.92-.45a.95.95 0 0 1-.92.74.94.94 0 0 1-.92-.74c.22.27.55.45.92.45Z" fill="url(#K)"/><defs><radialGradient id="b" cx="0" cy="0" r="1" gradientUnits="userSpaceOnUse" gradientTransform="matrix(-2.23167 6.32765 -16.51516 -5.82466 7.81 23.48)"><stop stop-color="#3C2200"/><stop offset="1" stop-color="#3C2200" stop-opacity="0"/></radialGradient><radialGradient id="d" cx="0" cy="0" r="1" gradientUnits="userSpaceOnUse" gradientTransform="matrix(8.2456 .2622 -.11973 3.76515 18.68 16.88)"><stop stop-color="#3C2200"/><stop offset="1" stop-color="#3C2200" stop-opacity="0"/></radialGradient><radialGradient id="j" cx="0" cy="0" r="1" gradientUnits="userSpaceOnUse" gradientTransform="rotate(28.78 -17.01 22.18) scale(8.08563 4.3591)"><stop stop-color="#3C2200"/><stop offset="1" stop-color="#3C2200" stop-opacity="0"/></radialGradient><radialGradient id="k" cx="0" cy="0" r="1" gradientUnits="userSpaceOnUse" gradientTransform="rotate(24.69 -10.01 37.1) scale(5.76666 2.70871)"><stop stop-color="#C86F34"/><stop offset="1" stop-color="#C86F34" stop-opacity="0"/></radialGradient><radialGradient id="m" cx="0" cy="0" r="1" gradientUnits="userSpaceOnUse" gradientTransform="matrix(8.55432 0 0 8.58255 9.05 1.02)"><stop stop-color="#3C2200"/><stop offset="1" stop-color="#3C2200" stop-opacity="0"/></radialGradient><radialGradient id="n" cx="0" cy="0" r="1" gradientUnits="userSpaceOnUse" gradientTransform="matrix(7.13043 0 0 7.15396 15.14 8.2)"><stop stop-color="#C86F34"/><stop offset="1" stop-color="#C86F34" stop-opacity="0"/></radialGradient><radialGradient id="o" cx="0" cy="0" r="1" gradientUnits="userSpaceOnUse" gradientTransform="matrix(7.2266 2.48168 -.91406 2.66172 9.42 16.08)"><stop stop-color="#C86F34"/><stop offset="1" stop-color="#C86F34" stop-opacity="0"/></radialGradient><radialGradient id="p" cx="0" cy="0" r="1" gradientUnits="userSpaceOnUse" gradientTransform="rotate(18.95 -34.8 14.71) scale(9.73409 2.95799)"><stop stop-color="#C86F34"/><stop offset="1" stop-color="#C86F34" stop-opacity="0"/></radialGradient><radialGradient id="q" cx="0" cy="0" r="1" gradientUnits="userSpaceOnUse" gradientTransform="matrix(2.60178 -3.49324 6.78103 5.05054 9.42 15.61)"><stop stop-color="#3C2200"/><stop offset="1" stop-color="#3C2200" stop-opacity="0"/></radialGradient><radialGradient id="r" cx="0" cy="0" r="1" gradientUnits="userSpaceOnUse" gradientTransform="rotate(-76.78 13.9 5.8) scale(1.92021 7.16581)"><stop stop-color="#C86F34"/><stop offset="1" stop-color="#C86F34" stop-opacity="0"/></radialGradient><radialGradient id="s" cx="0" cy="0" r="1" gradientUnits="userSpaceOnUse" gradientTransform="rotate(179.43 9.25 8.52) scale(4.84261 1.82615)"><stop stop-color="#C86F34"/><stop offset="1" stop-color="#C86F34" stop-opacity="0"/></radialGradient><radialGradient id="t" cx="0" cy="0" r="1" gradientUnits="userSpaceOnUse" gradientTransform="matrix(-2.05794 0 0 -2.25024 14.75 11.25)"><stop stop-color="#362501" stop-opacity=".4"/><stop offset="1" stop-color="#362501" stop-opacity="0"/></radialGradient><radialGradient id="u" cx="0" cy="0" r="1" gradientUnits="userSpaceOnUse" gradientTransform="translate(14.95 12.65) scale(2.1689)"><stop stop-color="#3D2A20" stop-opacity=".4"/><stop offset=".17" stop-color="#4B3021" stop-opacity=".5"/><stop offset=".72" stop-color="#734423" stop-opacity=".83"/><stop offset="1" stop-color="#824B24"/></radialGradient><radialGradient id="v" cx="0" cy="0" r="1" gradientUnits="userSpaceOnUse" gradientTransform="matrix(-2.05794 0 0 -2.25024 9.12 11.25)"><stop stop-color="#362501" stop-opacity=".4"/><stop offset="1" stop-color="#362501" stop-opacity="0"/></radialGradient><radialGradient id="w" cx="0" cy="0" r="1" gradientUnits="userSpaceOnUse" gradientTransform="translate(9.32 12.65) scale(2.1689)"><stop stop-color="#3D2A20" stop-opacity=".4"/><stop offset=".17" stop-color="#4B3021" stop-opacity=".5"/><stop offset=".72" stop-color="#734423" stop-opacity=".83"/><stop offset="1" stop-color="#824B24"/></radialGradient><radialGradient id="y" cx="0" cy="0" r="1" gradientUnits="userSpaceOnUse" gradientTransform="matrix(0 2.40371 -2.433 0 14.81 12.6)"><stop stop-color="#CFDCDE" stop-opacity="0"/><stop offset=".89" stop-color="#CFDCDE" stop-opacity=".89"/><stop offset="1" stop-color="#CFDCDE"/></radialGradient><radialGradient id="z" cx="0" cy="0" r="1" gradientUnits="userSpaceOnUse" gradientTransform="rotate(180 7.42 6.25) scale(2.06549)"><stop stop-color="#fff" stop-opacity="0"/><stop offset=".44" stop-color="#FDFEFE" stop-opacity=".35"/><stop offset=".6" stop-color="#F6F8F9" stop-opacity=".48"/><stop offset=".71" stop-color="#EBEFF0" stop-opacity=".57"/><stop offset=".8" stop-color="#DAE2E3" stop-opacity=".64"/><stop offset=".88" stop-color="#C4D1D3" stop-opacity=".7"/><stop offset=".9" stop-color="#BBCACC" stop-opacity=".72"/><stop offset="1" stop-color="#99AFB3"/></radialGradient><radialGradient id="A" cx="0" cy="0" r="1" gradientUnits="userSpaceOnUse" gradientTransform="rotate(180 7.4 6.18) scale(2.09951)"><stop offset=".88" stop-color="#643800" stop-opacity="0"/><stop offset=".92" stop-color="#3C2200" stop-opacity=".5"/><stop offset=".99" stop-color="#643800" stop-opacity="0"/></radialGradient><radialGradient id="G" cx="0" cy="0" r="1" gradientUnits="userSpaceOnUse" gradientTransform="matrix(0 2.40371 -2.433 0 9.19 12.6)"><stop stop-color="#CFDCDE" stop-opacity="0"/><stop offset=".89" stop-color="#CFDCDE" stop-opacity=".89"/><stop offset="1" stop-color="#CFDCDE"/></radialGradient><radialGradient id="H" cx="0" cy="0" r="1" gradientUnits="userSpaceOnUse" gradientTransform="rotate(180 4.6 6.25) scale(2.06549)"><stop stop-color="#fff" stop-opacity="0"/><stop offset=".44" stop-color="#FDFEFE" stop-opacity=".35"/><stop offset=".6" stop-color="#F6F8F9" stop-opacity=".48"/><stop offset=".71" stop-color="#EBEFF0" stop-opacity=".57"/><stop offset=".8" stop-color="#DAE2E3" stop-opacity=".64"/><stop offset=".88" stop-color="#C4D1D3" stop-opacity=".7"/><stop offset=".9" stop-color="#BBCACC" stop-opacity=".72"/><stop offset="1" stop-color="#99AFB3"/></radialGradient><radialGradient id="I" cx="0" cy="0" r="1" gradientUnits="userSpaceOnUse" gradientTransform="rotate(180 4.59 6.18) scale(2.09951)"><stop offset=".88" stop-color="#643800" stop-opacity="0"/><stop offset=".92" stop-color="#3C2200" stop-opacity=".5"/><stop offset=".99" stop-color="#643800" stop-opacity="0"/></radialGradient><linearGradient id="a" x1="13.52" y1="12.25" x2="11.16" y2="21.52" gradientUnits="userSpaceOnUse"><stop offset=".31" stop-color="#7A4400"/><stop offset="1" stop-color="#643800"/></linearGradient><linearGradient id="c" x1="12.54" y1="16" x2="13.83" y2="4.49" gradientUnits="userSpaceOnUse"><stop offset=".31" stop-color="#7A4400"/><stop offset="1" stop-color="#A66C3F"/></linearGradient><linearGradient id="e" x1="11.94" y1="10.4" x2="15.83" y2="3.78" gradientUnits="userSpaceOnUse"><stop offset=".31" stop-color="#7A4400"/><stop offset="1" stop-color="#A66C3F"/></linearGradient><linearGradient id="f" x1="8.92" y1="10.16" x2="10.6" y2="20.66" gradientUnits="userSpaceOnUse"><stop offset=".31" stop-color="#7A4400"/><stop offset="1" stop-color="#643800"/></linearGradient><linearGradient id="g" x1="13.04" y1="8.26" x2="11.92" y2="14.88" gradientUnits="userSpaceOnUse"><stop stop-color="#643800" stop-opacity="0"/><stop offset="1" stop-color="#512D00"/></linearGradient><linearGradient id="h" x1="6.9" y1="17.71" x2="17.42" y2="8.98" gradientUnits="userSpaceOnUse"><stop stop-color="#643800" stop-opacity="0"/><stop offset="1" stop-color="#512D00"/></linearGradient><linearGradient id="i" x1="6.01" y1="10.8" x2="2.54" y2="21.29" gradientUnits="userSpaceOnUse"><stop stop-color="#643800" stop-opacity="0"/><stop offset="1" stop-color="#512D00"/></linearGradient><linearGradient id="l" x1="12.46" y1="6.63" x2="14.9" y2="3.71" gradientUnits="userSpaceOnUse"><stop offset=".31" stop-color="#7A4400"/><stop offset="1" stop-color="#A66C3F"/></linearGradient><linearGradient id="x" x1="16.15" y1="22.09" x2="14.64" y2="11.06" gradientUnits="userSpaceOnUse"><stop offset="0" stop-color="#3C2200"/><stop offset="1" stop-color="#512D00"/></linearGradient><linearGradient id="B" x1="14.81" y1="36.44" x2="14.81" y2="34.62" gradientUnits="userSpaceOnUse"><stop offset="0" stop-color="#3C2200"/><stop offset="1" stop-color="#512D00"/></linearGradient><linearGradient id="C" x1="14.81" y1="12.17" x2="14.81" y2="13.6" gradientUnits="userSpaceOnUse"><stop offset="0" stop-color="#3C2200"/><stop offset="1"/></linearGradient><linearGradient id="D" x1="12" y1="18.11" x2="12" y2="16.47" gradientUnits="userSpaceOnUse"><stop offset="0" stop-color="#3C2200"/><stop offset="1" stop-color="#512D00"/></linearGradient><linearGradient id="E" x1="12" y1="17.37" x2="12" y2="11.77" gradientUnits="userSpaceOnUse"><stop offset="0" stop-color="#3C2200"/><stop offset="1"/></linearGradient><linearGradient id="F" x1="10.52" y1="22.09" x2="9.01" y2="11.06" gradientUnits="userSpaceOnUse"><stop offset="0" stop-color="#3C2200"/><stop offset="1" stop-color="#512D00"/></linearGradient><linearGradient id="J" x1="9.19" y1="36.44" x2="9.19" y2="34.62" gradientUnits="userSpaceOnUse"><stop offset="0" stop-color="#3C2200"/><stop offset="1" stop-color="#512D00"/></linearGradient><linearGradient id="K" x1="9.19" y1="12.17" x2="9.19" y2="13.6" gradientUnits="userSpaceOnUse"><stop offset="0" stop-color="#3C2200"/><stop offset="1"/></linearGradient></defs></svg>