<svg version="1.1" id="Uploaded to svgrepo.com" xmlns="http://www.w3.org/2000/svg" viewBox="0 0 32 32" xml:space="preserve"><path d="M12 7H9V6h3v1zm14-5v3c0 .6-.4 1-1 1h-1v8c.6 0 1 .4 1 1v3c0 .6-.4 1-1 1v.3a5 5 0 0 1-3.1 4.6 3 3 0 0 0-1.9 2.8v.3h2a2 2 0 0 1 2 2v2c0 .6-.4 1-1 1H8a1 1 0 0 1-1-1v-2c0-1.1.9-2 2-2h2v-.3a3 3 0 0 0-1.9-2.8A5 5 0 0 1 6 19.3V19a1 1 0 0 1-1-1v-3c0-.6.4-1 1-1V6H5a1 1 0 0 1-1-1V2c0-1.1.9-2 2-2h18a2 2 0 0 1 2 2zm-4 16H8v1.3a3 3 0 0 0 1.9 2.8 5 5 0 0 1 3.1 4.6V28h4v-1.3a5 5 0 0 1 3.1-4.6 3 3 0 0 0 1.9-2.8V18zm-1 11H9v1h12v-1zM6 4h18V2H6v2zm16 1H8v10h14V5zm1 12v-1H7v1h16z" /></svg>